Coordinates
version=1
nRows=9
nColumns=36
inDegrees=yes

Units are S.I. units (second, meters, Newtons, ...)
If the header above contains a line with 'inDegrees', this indicates whether rotational values are in degrees (yes) or radians (no).

endheader
time	pelvis_tilt	pelvis_list	pelvis_rotation	pelvis_tx	pelvis_ty	pelvis_tz	hip_flexion_r	hip_adduction_r	hip_rotation_r	knee_angle_r	knee_angle_r_beta	ankle_angle_r	subtalar_angle_r	mtp_angle_r	hip_flexion_l	hip_adduction_l	hip_rotation_l	knee_angle_l	knee_angle_l_beta	ankle_angle_l	subtalar_angle_l	mtp_angle_l	lumbar_extension	lumbar_bending	lumbar_rotation	arm_flex_r	arm_add_r	arm_rot_r	elbow_flex_r	pro_sup_r	arm_flex_l	arm_add_l	arm_rot_l	elbow_flex_l	pro_sup_l
      0.30000000	      3.38101097	     -0.09566059	      4.41954036	      0.25205838	      0.91119384	     -0.15961894	     -2.56195029	      6.44059197	      4.78548081	     11.59166776	      0.20231277	     11.42221673	     -8.63039341	     -6.57176265	     25.15438727	     -0.61252131	     -4.29586062	     57.08334789	      0.99629237	     -0.12534187	     -7.85036014	     -6.57176265	    -14.25169433	      0.31493231	      1.80262447	      7.01056887	     -8.85607235	     -4.82208090	     29.98112615	     93.39287422	      3.71256755	     -4.67640772	     -5.16559558	     20.38245051	     94.42717397
      0.31000000	      3.22605901	     -0.07454486	      4.08140012	      0.26512898	      0.91064520	     -0.15908376	     -3.64998150	      6.42201803	      4.65948904	     10.97426682	      0.19153709	     12.27882181	     -7.56176167	     -6.65528170	     26.06336597	     -0.34176470	     -4.17904929	     54.05012506	      0.94335264	      0.20779358	     -7.80500964	     -6.65528170	    -14.18634180	      0.21430325	      2.45093350	      7.33857423	     -8.85369138	     -6.80687890	     31.75923722	     94.36992493	      2.92153533	     -4.86431575	     -5.96164498	     19.87703309	     93.47423755
      0.32000000	      2.90355429	     -0.09717554	      3.76218801	      0.27819854	      0.90960352	     -0.15861529	     -4.56107506	      6.46744875	      4.91306046	     10.35058933	      0.18065186	     12.54812732	     -7.32821100	     -6.66193411	     27.03854755	     -0.09456066	     -3.93795572	     50.76910075	      0.88608797	      0.54003471	     -7.65271035	     -6.66193411	    -13.88661814	      0.14747580	      2.82224480	      8.01283618	     -9.08020220	     -6.72604631	     32.70735273	     94.51521895	      1.97705813	     -5.18008846	     -6.17321459	     19.29265378	     93.32234307
      0.33000000	      3.05974366	     -0.06700655	      3.42030872	      0.29146284	      0.90899037	     -0.15822994	     -6.08727944	      6.45430789	      5.09476391	      9.57461228	      0.16710851	     13.16343346	     -6.83281351	     -6.68080672	     27.24794321	      0.13252811	     -3.77826282	     47.11040605	      0.82223170	      0.63981784	     -7.69102050	     -6.68080672	    -14.16616389	      0.05670960	      3.38829531	      8.46142196	     -9.42150231	     -6.68320831	     34.16579161	     94.80691804	      1.29114881	     -5.41578548	     -6.72000515	     18.65927526	     92.92013928
      0.34000000	      2.75961181	     -0.10164748	      3.14489503	      0.30477223	      0.90748282	     -0.15797989	     -6.97944388	      6.49536888	      5.30858314	      9.08673870	      0.15859351	     13.58229593	     -6.52455350	     -6.69003401	     27.88811680	      0.35268279	     -3.47139892	     43.32091140	      0.75609254	      0.90840807	     -7.59943610	     -6.69003401	    -13.86537915	      0.02487148	      3.79384756	      8.98080055	     -9.67845769	     -6.66571517	     35.15488126	     94.96698245	      0.41527811	     -5.68698618	     -7.09490799	     18.13988846	     92.66887040
      0.35000000	      2.80992999	     -0.11591222	      2.85143086	      0.31820878	      0.90624380	     -0.15781732	     -8.27514714	      6.49290765	      5.37108258	      8.57117868	      0.14959529	     14.26214997	     -5.91321806	     -6.71014378	     27.93478705	      0.53806541	     -3.20070509	     39.21320431	      0.68439953	      0.98085161	     -7.81313651	     -6.71014378	    -13.98057913	      0.01561700	      4.32119284	      9.35916427	    -10.00357489	     -6.60232245	     36.47342027	     95.27246155	     -0.27463653	     -5.86747332	     -7.87742204	     17.55506732	     92.13167375
      0.36000000	      2.39486111	     -0.24204934	      2.56032463	      0.33169717	      0.90413453	     -0.15767762	     -8.92754582	      6.60193278	      5.59263022	      8.32419376	      0.14528459	     14.64287455	     -5.65151223	     -6.71760291	     28.44501532	      0.59631108	     -2.88948210	     35.12338291	      0.61301868	      1.47232021	     -7.66887184	     -6.71760291	    -13.50408501	      0.10493888	      4.73599154	      9.83920822	    -10.23340952	     -6.48257540	     37.30407398	     95.43073662	     -1.19272243	     -6.09959710	     -8.27194885	     16.98447424	     91.88133752
      0.37000000	      2.08725091	     -0.35124524	      2.26641495	      0.34529114	      0.90199061	     -0.15758479	     -9.67560142	      6.68788154	      5.81944940	      8.15015778	      0.14224709	     15.08634948	     -5.40002034	     -6.72427304	     28.68112896	      0.62260506	     -2.64234696	     30.86114101	      0.53862852	      2.08347460	     -7.48926808	     -6.72427304	    -13.15452509	      0.17853537	      5.16571304	     10.25467168	    -10.49138240	     -6.24173632	     38.18169771	     95.61089457	     -2.03542319	     -6.32002720	     -8.71696916	     16.27132092	     91.61593089
      0.38000000	      2.11048606	     -0.35393065	      2.04652475	      0.35904770	      0.90011440	     -0.15780783	    -10.70245547	      6.58667826	      5.13774229	      8.15422059	      0.14231800	     16.49751820	     -3.59161422	     -6.80791071	     28.38885892	      0.77610689	     -2.43014948	     26.42974106	      0.46128600	      2.53665381	     -7.64007032	     -6.80791071	    -13.21546122	      0.18079189	      5.50498657	     10.64009890	    -10.87732305	     -5.59400608	     39.04562896	     96.94987937	     -2.74462452	     -6.33904992	    -10.79944389	     15.83239296	     89.64430222
